<?xml version="1.0" encoding="UTF-8"?>
<svg version="1.1" xmlns="http://www.w3.org/2000/svg" width="512" height="512">
<path d="M0 0 C9.98261964 9.14491729 16.78856205 22.0079139 17.79296875 35.55859375 C18.10563452 52.20344778 13.09131502 65.55307297 1.79296875 77.55859375 C-3.66150972 82.24796438 -9.71444028 85.53618071 -16.20703125 88.55859375 C-17.54223328 89.22150985 -18.87605151 89.88724053 -20.20703125 90.55859375 C-9.76609578 130.81671192 3.24823588 179.30585055 39.9140625 203.921875 C54.14165777 212.01056213 68.56708524 214.65010638 84.48388672 210.59472656 C114.09426904 202.1306723 133.6791028 175.0297519 148.04296875 149.49609375 C152.16189913 142.05423484 155.66504405 134.46741149 158.79296875 126.55859375 C157.81457031 125.74068359 157.81457031 125.74068359 156.81640625 124.90625 C148.20503151 117.47608153 140.77325781 109.34685318 139.59667969 97.59863281 C138.60134354 83.5700271 141.13529611 72.74482242 150.5 61.81640625 C158.92869664 53.51694006 168.95686922 49.61354472 180.66796875 49.12109375 C189.60692333 49.36551829 198.77653369 51.87862251 205.79296875 57.55859375 C206.35242188 57.9659375 206.911875 58.37328125 207.48828125 58.79296875 C215.00609568 64.58591666 220.76530216 74.22335282 222.09423828 83.70898438 C222.22950127 85.93907678 222.26078013 88.13719348 222.23046875 90.37109375 C222.21910889 91.55131104 222.21910889 91.55131104 222.20751953 92.75537109 C221.85033596 105.4497274 216.5364798 114.2416704 207.48046875 122.80859375 C200.8528656 128.46874476 194.42592777 130.93074218 185.79296875 131.55859375 C185.68938333 132.35254767 185.5857979 133.1465016 185.47907352 133.96451473 C184.09563426 144.13000405 182.23033537 154.16610363 180.27709961 164.23461914 C179.9234641 166.07085729 179.57012481 167.90715251 179.21705627 169.74349976 C178.26559851 174.68764694 177.31002901 179.63099115 176.35366511 184.57419133 C175.35077093 189.76168003 174.35169462 194.94990398 173.35218811 200.13804626 C171.46139978 209.94945342 169.56716853 219.76019254 167.67169911 229.57069629 C165.51643478 240.72681613 163.36523064 251.88371769 161.21427333 263.04066861 C158.04512192 279.47825231 154.87448067 295.91554862 151.69994164 312.35209274 C151.35683101 314.12864464 151.0137734 315.90520677 150.67077255 317.68177986 C150.2028389 320.10531453 149.73468676 322.52880689 149.26646423 324.95228577 C149.13066718 325.65577921 148.99487012 326.35927266 148.854958 327.08408409 C148.17960538 330.57817202 147.49091056 334.06888469 146.79296875 337.55859375 C27.33296875 337.55859375 -92.12703125 337.55859375 -215.20703125 337.55859375 C-254.20703125 135.77598505 -254.20703125 135.77598505 -254.20703125 131.55859375 C-255.27953125 131.51734375 -256.35203125 131.47609375 -257.45703125 131.43359375 C-266.80819289 130.20883984 -274.8988096 124.91344384 -281.23046875 118.1328125 C-289.78994713 106.98519145 -291.56711919 95.21626803 -290.20703125 81.55859375 C-287.62573156 71.08291563 -281.20651983 62.01713633 -272.38671875 55.83984375 C-262.3041029 49.91314483 -251.42453079 48.02453022 -239.921875 50.171875 C-228.72054799 53.20250817 -219.07172325 59.36690338 -213.20703125 69.55859375 C-212.72234375 70.39648438 -212.23765625 71.234375 -211.73828125 72.09765625 C-206.65733621 82.34422875 -206.2542734 94.82955199 -209.83203125 105.68359375 C-213.7138741 114.54285183 -219.87276087 120.43040339 -227.20703125 126.55859375 C-219.69505296 144.18454135 -211.32491033 160.60796372 -199.20703125 175.55859375 C-198.75070313 176.12707031 -198.294375 176.69554687 -197.82421875 177.28125 C-183.89142857 194.52959721 -165.93320621 209.54483848 -143.20703125 212.55859375 C-126.91109796 213.68879558 -112.61377393 207.97171351 -100.20703125 197.55859375 C-70.09734137 170.78978486 -57.46500508 128.35843159 -48.20703125 90.55859375 C-49.10164062 90.14609375 -49.99625 89.73359375 -50.91796875 89.30859375 C-66.03279104 82.17179633 -77.67691211 72.77837217 -83.70703125 56.68359375 C-87.86404768 42.12445787 -86.81037586 27.99723993 -79.83203125 14.55859375 C-72.80525662 2.50228127 -62.61159594 -5.99109077 -49.20703125 -10.44140625 C-31.56184115 -14.88459267 -14.23662318 -11.37858929 0 0 Z " fill="#000000" transform="translate(290.20703125,52.44140625)"/>
<path d="M0 0 C1.38571253 -0.00302359 2.77142339 -0.00691411 4.15713131 -0.01159257 C7.95070814 -0.02185458 11.74419027 -0.01969535 15.5377748 -0.01541197 C19.63467024 -0.01294148 23.73154306 -0.02196292 27.82843018 -0.02944946 C35.84917995 -0.04218949 43.86989624 -0.04399102 51.89065443 -0.0416492 C58.41116767 -0.03986511 64.93167075 -0.04161764 71.45218277 -0.04587364 C72.380733 -0.04646883 73.30928323 -0.04706402 74.26597134 -0.04767724 C76.15241376 -0.04888901 78.03885617 -0.05010315 79.92529859 -0.05131962 C97.6107431 -0.06219247 115.29616854 -0.06003387 132.98161413 -0.05393478 C149.15362312 -0.0487658 165.32557187 -0.060021 181.49756895 -0.07903299 C198.11131852 -0.09841429 214.7250396 -0.10666688 231.33880055 -0.10290974 C240.66281627 -0.10099815 249.98678071 -0.10348123 259.3107872 -0.11762428 C267.24839783 -0.12954275 275.18592563 -0.13093773 283.12353741 -0.11883412 C287.17136833 -0.11294872 291.21904779 -0.11183657 295.26686859 -0.12383652 C298.9766507 -0.1347063 302.68615505 -0.13157912 306.39592423 -0.11757483 C308.36452604 -0.11368409 310.33314025 -0.12446605 312.30171287 -0.13587171 C322.99253968 -0.07087757 332.06182513 1.4291474 340.1267395 8.90913391 C346.3579958 15.36434657 349.45257835 22.78750282 349.84939575 31.76069641 C349.46770323 40.39187254 346.53788595 48.19554859 340.5329895 54.47163391 C329.71528102 63.33480115 318.30735593 63.4109445 305.00923157 63.39440918 C303.65723158 63.39627951 302.30523214 63.3985811 300.95323354 63.4012745 C297.25282265 63.40737136 293.55243443 63.40726141 289.85201967 63.40608013 C285.85531734 63.40587559 281.85862218 63.41139995 277.86192322 63.4161377 C270.03736338 63.42443305 262.21281108 63.42719203 254.38824721 63.42775007 C248.02649816 63.42822573 241.66475158 63.43028298 235.30300331 63.4334507 C217.25528022 63.44225399 199.20756306 63.44687055 181.1598378 63.44612022 C180.18751644 63.44608027 179.21519507 63.44604031 178.21340942 63.44599915 C176.7531411 63.44593782 176.7531411 63.44593782 175.2633724 63.44587526 C159.48651088 63.44546882 143.70967323 63.45503886 127.93281861 63.46913751 C111.72248264 63.48350893 95.51215831 63.49040728 79.30181581 63.48954374 C70.20525594 63.48921205 61.1087211 63.49194691 52.01216698 63.50272179 C44.26747148 63.51183682 36.52281235 63.51399377 28.7781138 63.50721236 C24.82942542 63.50395232 20.88080679 63.50387183 16.93212509 63.51256561 C13.31178207 63.5204543 9.69156384 63.51897516 6.07122377 63.51028148 C4.15307043 63.50803142 2.23491315 63.51555648 0.31677502 63.52352113 C-12.21445939 63.47382082 -23.48900048 62.43578719 -32.724823 53.18257141 C-38.80206537 45.89497678 -41.31258618 38.57338735 -40.99435425 29.09272766 C-39.80370971 19.28344026 -35.42679076 11.79830185 -27.7013855 5.72944641 C-19.0547047 -0.11428285 -10.12178109 -0.02995024 0 0 Z " fill="#000000" transform="translate(101.65060424804688,408.7393035888672)"/>
</svg>
